<svg xmlns="http://www.w3.org/2000/svg" viewBox="0 0 64 64" width="64" height="64">
  <g fill="none" stroke="#000" stroke-linecap="round" stroke-linejoin="round" stroke-width="2">
    <path d="M32 12c-5 0-9 4-9 9s4 9 9 9 9-4 9-9-4-9-9-9z"/>
    <path d="M32 30c-7 0-14 3-14 10v12h28V40c0-7-7-10-14-10z"/>
    <path d="M32 2c-8 0-14 6-14 14s6 14 14 14 14-6 14-14S40 2 32 2z"/>
    <path d="M24 16c0 4 4 8 8 8s8-4 8-8"/>
    <path d="M24 7c0 3 2 6 6 6s6-3 6-6"/>
    <path d="M28 1c0 2 1 4 4 4s4-2 4-4"/>
  </g>
</svg>
